name Walk4.mot
datacolumns 19
datarows 20
range 2.00000000 2.01900000
endheader

                time	   L_ground_force_vx	   L_ground_force_vy	   L_ground_force_vz	   L_ground_force_px	   L_ground_force_py	   L_ground_force_pz	   R_ground_force_vx	   R_ground_force_vy	   R_ground_force_vz	   R_ground_force_px	   R_ground_force_py	   R_ground_force_pz	   L_ground_torque_x	   L_ground_torque_y	   L_ground_torque_z	   R_ground_torque_x	   R_ground_torque_y	   R_ground_torque_z	
          2.00000000	        -23.12792035	        529.34147219	         20.79763766	          0.49051765	          0.00000000	          0.23998325	          0.00000000	          0.00000000	          0.00000000	          0.00000000	          0.00000000	          0.00000000	          0.00000000	         -1.56870688	          0.00000000	          0.00000000	          0.00000000	          0.00000000	
          2.00100000	        -22.72714611	        528.32828423	         21.01032449	          0.49069868	          0.00000000	          0.23999762	          0.00000000	          0.00000000	          0.00000000	          0.00000000	          0.00000000	          0.00000000	          0.00000000	         -1.59676640	          0.00000000	          0.00000000	          0.00000000	          0.00000000	
          2.00200000	        -22.36019296	        527.45613771	         21.24714227	          0.49093265	          0.00000000	          0.24002344	          0.00000000	          0.00000000	          0.00000000	          0.00000000	          0.00000000	          0.00000000	          0.00000000	         -1.61382722	          0.00000000	          0.00000000	          0.00000000	          0.00000000	
          2.00300000	        -22.03667808	        526.69106233	         21.49527340	          0.49124451	          0.00000000	          0.24003876	          0.00000000	          0.00000000	          0.00000000	          0.00000000	          0.00000000	          0.00000000	          0.00000000	         -1.62023196	          0.00000000	          0.00000000	          0.00000000	          0.00000000	
          2.00400000	        -21.73986733	        525.99953332	         21.75093137	          0.49161797	          0.00000000	          0.24003565	          0.00000000	          0.00000000	          0.00000000	          0.00000000	          0.00000000	          0.00000000	          0.00000000	         -1.62026793	          0.00000000	          0.00000000	          0.00000000	          0.00000000	
          2.00500000	        -21.43995950	        525.36087007	         22.01569649	          0.49201327	          0.00000000	          0.24000177	          0.00000000	          0.00000000	          0.00000000	          0.00000000	          0.00000000	          0.00000000	          0.00000000	         -1.62126843	          0.00000000	          0.00000000	          0.00000000	          0.00000000	
          2.00600000	        -21.11386829	        524.76117362	         22.29105090	          0.49237992	          0.00000000	          0.23992416	          0.00000000	          0.00000000	          0.00000000	          0.00000000	          0.00000000	          0.00000000	          0.00000000	         -1.62804815	          0.00000000	          0.00000000	          0.00000000	          0.00000000	
          2.00700000	        -20.75764543	        524.19477013	         22.57817181	          0.49268475	          0.00000000	          0.23981160	          0.00000000	          0.00000000	          0.00000000	          0.00000000	          0.00000000	          0.00000000	          0.00000000	         -1.64104012	          0.00000000	          0.00000000	          0.00000000	          0.00000000	
          2.00800000	        -20.38492325	        523.67374105	         22.87954038	          0.49292991	          0.00000000	          0.23969707	          0.00000000	          0.00000000	          0.00000000	          0.00000000	          0.00000000	          0.00000000	          0.00000000	         -1.66005995	          0.00000000	          0.00000000	          0.00000000	          0.00000000	
          2.00900000	        -20.01586684	        523.21607273	         23.19698921	          0.49314508	          0.00000000	          0.23961447	          0.00000000	          0.00000000	          0.00000000	          0.00000000	          0.00000000	          0.00000000	          0.00000000	         -1.68427212	          0.00000000	          0.00000000	          0.00000000	          0.00000000	
          2.01000000	        -19.66754580	        522.82005599	         23.53415008	          0.49338489	          0.00000000	          0.23957826	          0.00000000	          0.00000000	          0.00000000	          0.00000000	          0.00000000	          0.00000000	          0.00000000	         -1.70908555	          0.00000000	          0.00000000	          0.00000000	          0.00000000	
          2.01100000	        -19.34804609	        522.47195040	         23.90184866	          0.49371797	          0.00000000	          0.23958021	          0.00000000	          0.00000000	          0.00000000	          0.00000000	          0.00000000	          0.00000000	          0.00000000	         -1.72931549	          0.00000000	          0.00000000	          0.00000000	          0.00000000	
          2.01200000	        -19.05228738	        522.16213593	         24.30750529	          0.49417881	          0.00000000	          0.23959545	          0.00000000	          0.00000000	          0.00000000	          0.00000000	          0.00000000	          0.00000000	          0.00000000	         -1.74314411	          0.00000000	          0.00000000	          0.00000000	          0.00000000	
          2.01300000	        -18.76443060	        521.87415118	         24.74082118	          0.49472352	          0.00000000	          0.23959145	          0.00000000	          0.00000000	          0.00000000	          0.00000000	          0.00000000	          0.00000000	          0.00000000	         -1.74986192	          0.00000000	          0.00000000	          0.00000000	          0.00000000	
          2.01400000	        -18.47030142	        521.59372782	         25.18449796	          0.49526030	          0.00000000	          0.23953749	          0.00000000	          0.00000000	          0.00000000	          0.00000000	          0.00000000	          0.00000000	          0.00000000	         -1.74821441	          0.00000000	          0.00000000	          0.00000000	          0.00000000	
          2.01500000	        -18.16461692	        521.33033808	         25.63029441	          0.49573205	          0.00000000	          0.23941909	          0.00000000	          0.00000000	          0.00000000	          0.00000000	          0.00000000	          0.00000000	          0.00000000	         -1.73871044	          0.00000000	          0.00000000	          0.00000000	          0.00000000	
          2.01600000	        -17.84482302	        521.10132379	         26.07600350	          0.49613675	          0.00000000	          0.23924852	          0.00000000	          0.00000000	          0.00000000	          0.00000000	          0.00000000	          0.00000000	          0.00000000	         -1.72422848	          0.00000000	          0.00000000	          0.00000000	          0.00000000	
          2.01700000	        -17.50901440	        520.91929859	         26.51923832	          0.49647315	          0.00000000	          0.23905753	          0.00000000	          0.00000000	          0.00000000	          0.00000000	          0.00000000	          0.00000000	          0.00000000	         -1.70810151	          0.00000000	          0.00000000	          0.00000000	          0.00000000	
          2.01800000	        -17.15902807	        520.79830894	         26.95947606	          0.49672615	          0.00000000	          0.23888141	          0.00000000	          0.00000000	          0.00000000	          0.00000000	          0.00000000	          0.00000000	          0.00000000	         -1.69394172	          0.00000000	          0.00000000	          0.00000000	          0.00000000	
          2.01900000	        -16.79597621	        520.74635524	         27.40265916	          0.49690437	          0.00000000	          0.23874722	          0.00000000	          0.00000000	          0.00000000	          0.00000000	          0.00000000	          0.00000000	          0.00000000	         -1.68560873	          0.00000000	          0.00000000	          0.00000000	          0.00000000	
